<mxfile host="Electron" agent="Mozilla/5.0 (X11; Linux x86_64) AppleWebKit/537.36 (KHTML, like Gecko) draw.io/24.7.17 Chrome/128.0.6613.36 Electron/32.0.1 Safari/537.36" version="24.7.17">
  <diagram name="Page-1" id="dVyGiVs8ehKZ53cwK3o7">
    <mxGraphModel dx="735" dy="450" grid="1" gridSize="10" guides="1" tooltips="1" connect="1" arrows="1" fold="1" page="1" pageScale="1" pageWidth="850" pageHeight="1100" background="none" math="0" shadow="0">
      <root>
        <mxCell id="0" />
        <mxCell id="1" parent="0" />
        <mxCell id="e2QmlhiRNKXvnhuC2Xxh-1" value="" style="endArrow=classic;html=1;rounded=0;" edge="1" parent="1">
          <mxGeometry width="50" height="50" relative="1" as="geometry">
            <mxPoint x="120" y="360" as="sourcePoint" />
            <mxPoint x="120" y="160" as="targetPoint" />
          </mxGeometry>
        </mxCell>
        <mxCell id="e2QmlhiRNKXvnhuC2Xxh-3" value="" style="endArrow=classic;html=1;rounded=0;" edge="1" parent="1">
          <mxGeometry width="50" height="50" relative="1" as="geometry">
            <mxPoint x="120" y="360" as="sourcePoint" />
            <mxPoint x="420" y="360" as="targetPoint" />
          </mxGeometry>
        </mxCell>
        <mxCell id="e2QmlhiRNKXvnhuC2Xxh-4" value="Complexity" style="text;html=1;align=center;verticalAlign=middle;whiteSpace=wrap;rounded=0;" vertex="1" parent="1">
          <mxGeometry x="380" y="360" width="60" height="30" as="geometry" />
        </mxCell>
        <mxCell id="e2QmlhiRNKXvnhuC2Xxh-6" value="Performance" style="text;html=1;align=center;verticalAlign=middle;whiteSpace=wrap;rounded=0;rotation=-90;" vertex="1" parent="1">
          <mxGeometry x="74" y="180" width="60" height="30" as="geometry" />
        </mxCell>
        <mxCell id="e2QmlhiRNKXvnhuC2Xxh-7" value="" style="endArrow=none;dashed=1;html=1;dashPattern=1 3;strokeWidth=2;rounded=0;fillColor=#fa6800;strokeColor=#C73500;" edge="1" parent="1">
          <mxGeometry width="50" height="50" relative="1" as="geometry">
            <mxPoint x="120" y="296" as="sourcePoint" />
            <mxPoint x="447" y="296" as="targetPoint" />
          </mxGeometry>
        </mxCell>
        <mxCell id="e2QmlhiRNKXvnhuC2Xxh-8" value="Good-enough threshold" style="text;html=1;align=center;verticalAlign=middle;whiteSpace=wrap;rounded=0;fontSize=10;" vertex="1" parent="1">
          <mxGeometry x="317" y="270" width="140" height="30" as="geometry" />
        </mxCell>
        <mxCell id="e2QmlhiRNKXvnhuC2Xxh-9" value="" style="endArrow=none;dashed=1;html=1;dashPattern=1 3;strokeWidth=2;rounded=0;fillColor=#008a00;strokeColor=#005700;" edge="1" parent="1">
          <mxGeometry width="50" height="50" relative="1" as="geometry">
            <mxPoint x="120" y="179" as="sourcePoint" />
            <mxPoint x="447" y="179" as="targetPoint" />
          </mxGeometry>
        </mxCell>
        <mxCell id="e2QmlhiRNKXvnhuC2Xxh-10" value="Highest-achievable performance threshold" style="text;html=1;align=center;verticalAlign=middle;whiteSpace=wrap;rounded=0;fontSize=10;" vertex="1" parent="1">
          <mxGeometry x="238" y="153" width="217" height="30" as="geometry" />
        </mxCell>
        <mxCell id="e2QmlhiRNKXvnhuC2Xxh-11" value="" style="ellipse;whiteSpace=wrap;html=1;aspect=fixed;" vertex="1" parent="1">
          <mxGeometry x="NaN" y="NaN" width="NaN" height="10" as="geometry" />
        </mxCell>
        <mxCell id="e2QmlhiRNKXvnhuC2Xxh-12" value="" style="ellipse;whiteSpace=wrap;html=1;aspect=fixed;fillColor=#f0a30a;fontColor=#000000;strokeColor=#BD7000;" vertex="1" parent="1">
          <mxGeometry x="197" y="317" width="5" height="5" as="geometry" />
        </mxCell>
        <mxCell id="e2QmlhiRNKXvnhuC2Xxh-15" value="Dummy baseline" style="text;html=1;align=center;verticalAlign=middle;whiteSpace=wrap;rounded=0;fontSize=10;" vertex="1" parent="1">
          <mxGeometry x="186" y="310" width="114" height="30" as="geometry" />
        </mxCell>
        <mxCell id="e2QmlhiRNKXvnhuC2Xxh-16" value="" style="endArrow=none;dashed=1;html=1;dashPattern=1 3;strokeWidth=2;rounded=0;fillColor=#e3c800;strokeColor=#B09500;" edge="1" parent="1">
          <mxGeometry width="50" height="50" relative="1" as="geometry">
            <mxPoint x="120" y="209" as="sourcePoint" />
            <mxPoint x="447" y="209" as="targetPoint" />
          </mxGeometry>
        </mxCell>
        <mxCell id="e2QmlhiRNKXvnhuC2Xxh-17" value="Human-level performance threshold" style="text;html=1;align=center;verticalAlign=middle;whiteSpace=wrap;rounded=0;fontSize=10;" vertex="1" parent="1">
          <mxGeometry x="270" y="183" width="185" height="30" as="geometry" />
        </mxCell>
      </root>
    </mxGraphModel>
  </diagram>
</mxfile>
